<?xml version="1.0" encoding="UTF-8"?>
<svg width="512" height="512" viewBox="0 0 512 512" fill="none" xmlns="http://www.w3.org/2000/svg">
  <rect width="512" height="512" fill="#2563eb"/>
  <path d="M256 128C238.327 128 224 142.327 224 160V288C224 305.673 238.327 320 256 320C273.673 320 288 305.673 288 288V160C288 142.327 273.673 128 256 128Z" fill="white"/>
  <path d="M192 272C192 261.163 183.673 252 173 252C162.327 252 154 261.163 154 272C154 316.183 199.817 352 256 352C312.183 352 358 316.183 358 272C358 261.163 349.673 252 339 252C328.327 252 320 261.163 320 272C320 294.091 291.346 320 256 320C220.654 320 192 294.091 192 272Z" fill="white"/>
  <path d="M272 368C272 357.163 263.673 348 253 348C242.327 348 234 357.163 234 368V400C234 410.837 242.327 420 253 420C263.673 420 272 410.837 272 400V368Z" fill="white"/>
</svg> 